# xmcd CD database file
#
# Track frame offsets:
#	150
#	18571
#	40775
#	68448
#
# Disc length: 1200 seconds
#
# Revision: 0
# Processed by: cddbd v1.5.1PL0 Copyright (c) Steve Scherf et al.
# Submitted via: CDex 1.51
#
DISCID=2704ae04
DTITLE=Kasey Chambers - Pony - single
DYEAR=2005
DGENRE=Country
TTITLE0=Pony
TTITLE1=Driving with the brakes on
TTITLE2=Hollywood - live
TTITLE3=DATA
EXTD=YEAR: 2005
EXTT0=
EXTT1=
EXTT2=
EXTT3=
PLAYORDER=
